<?xml version="1.0" standalone="no"?><!DOCTYPE svg PUBLIC "-//W3C//DTD SVG 1.1//EN" "http://www.w3.org/Graphics/SVG/1.1/DTD/svg11.dtd"><svg t="1625296146534" class="icon" viewBox="0 0 1024 1024" version="1.1" xmlns="http://www.w3.org/2000/svg" p-id="2407" width="200" height="200" xmlns:xlink="http://www.w3.org/1999/xlink"><defs><style type="text/css"></style></defs><path d="M512 96c-229.76 0-416 186.24-416 416s186.24 416 416 416 416-186.24 416-416S741.76 96 512 96z m0 64a352 352 0 1 1 0 704 352 352 0 0 1 0-704z" fill="#000000" p-id="2408"></path><path d="M580.437333 401.237333c-21.034667 106.752-65.536 183.765333-75.605333 292.821334 2.389333 1.792 2.048 1.450667 5.205333 2.56 32.853333 11.008 51.626667-65.28 73.002667-59.946667 21.333333 5.333333-13.354667 43.178667-18.218667 49.536-19.2 25.045333-55.765333 67.584-99.114666 67.84-30.592 0.128-62.336-19.2-57.344-70.4 4.992-51.328 33.792-102.656 49.493333-159.872 12.757333-46.165333 29.184-84.693333-33.877333-83.413333v-13.056c42.368-16.768 107.562667-10.666667 151.253333-26.026667z m-42.069333-121.173333a53.333333 53.333333 0 1 1 0 106.666667 53.333333 53.333333 0 0 1 0-106.666667z" fill="#000000" p-id="2409"></path></svg>