<?xml version="1.0" standalone="no"?><!DOCTYPE svg PUBLIC "-//W3C//DTD SVG 1.1//EN" "http://www.w3.org/Graphics/SVG/1.1/DTD/svg11.dtd"><svg t="1625293310555" class="icon" viewBox="0 0 1024 1024" version="1.1" xmlns="http://www.w3.org/2000/svg" p-id="2429" xmlns:xlink="http://www.w3.org/1999/xlink" width="200" height="200"><defs><style type="text/css"></style></defs><path d="M536.1664 552.05888c64.79872-39.03488 108.01152-108.42112 108.01152-186.49088 0-121.4464-99.36896-221.184-220.3648-221.184-120.99584 0-229.00736 99.7376-229.00736 221.184 0 78.06976 43.2128 147.456 108.01152 186.49088-116.65408 43.37664-198.73792 156.13952-198.73792 290.57024 0 21.66784 17.28512 39.03488 38.87104 39.03488 21.58592 0 38.87104-17.36704 38.87104-39.03488 0-130.08896 108.01152-238.51008 237.60896-238.51008 133.9392 0 237.64992 108.42112 237.64992 238.51008 0 21.66784 17.28512 39.03488 38.87104 39.03488 21.58592 0 38.87104-17.36704 38.87104-39.03488 0.08192-130.12992-82.00192-242.8928-198.656-290.57024z m-116.65408-39.03488c-82.08384 0-146.88256-65.04448-146.88256-147.456s64.79872-147.456 146.88256-147.456 146.88256 65.04448 146.88256 147.456-64.79872 147.456-146.88256 147.456z" fill="#000000" p-id="2430"></path><path d="M741.45792 517.40672c59.31008-35.71712 98.83648-99.20512 98.83648-170.63936 0-99.49184-72.9088-183.00928-167.64928-199.43424v69.8368c56.19712 16.13824 96.50176 67.46112 96.50176 129.59744s-40.30464 113.4592-96.50176 129.59744v91.9552c103.6288 18.0224 179.48672 108.50304 179.48672 214.95808 0 19.82464 15.81056 35.71712 35.59424 35.71712s35.59424-15.89248 35.59424-35.71712c0-119.07072-75.12064-222.24896-181.8624-265.87136z" fill="#000000" p-id="2431"></path></svg>