<?xml version="1.0" standalone="no"?><!DOCTYPE svg PUBLIC "-//W3C//DTD SVG 1.1//EN" "http://www.w3.org/Graphics/SVG/1.1/DTD/svg11.dtd"><svg t="1625148651807" class="icon" viewBox="0 0 1024 1024" version="1.1" xmlns="http://www.w3.org/2000/svg" p-id="4401" xmlns:xlink="http://www.w3.org/1999/xlink" width="200" height="200"><defs><style type="text/css"></style></defs><path d="M782.336 390.656h-61.44V295.936c0-114.688-93.696-208.384-208.384-208.384-114.688 0-208.384 93.696-208.384 208.384v94.72H242.176c-36.864 0-66.048 29.696-66.048 66.048v395.264c0 36.864 29.696 66.048 66.048 66.048h540.16c36.864 0 66.048-29.696 66.048-66.048V457.216c0.512-36.352-29.696-66.56-66.048-66.56z m-419.84-94.72c0-82.944 67.072-150.528 150.016-150.016 82.944 0 150.016 67.072 150.016 150.016v94.72H362.496V295.936z m178.688 352.256v98.304c0 8.192-3.072 14.848-8.704 20.48s-12.8 8.704-20.48 8.704c-15.872 0-29.184-13.312-29.184-29.184v-98.304c-14.848-9.728-25.088-26.624-25.088-45.568 0-29.696 24.064-53.76 53.76-53.76s53.76 24.064 53.76 53.76c0.512 18.944-9.216 35.84-24.064 45.568z" fill="#2C2C2C" p-id="4402"></path></svg>