<?xml version="1.0" standalone="no"?><!DOCTYPE svg PUBLIC "-//W3C//DTD SVG 1.1//EN" "http://www.w3.org/Graphics/SVG/1.1/DTD/svg11.dtd"><svg t="1625027648007" class="icon" viewBox="0 0 1024 1024" version="1.1" xmlns="http://www.w3.org/2000/svg" p-id="1197" xmlns:xlink="http://www.w3.org/1999/xlink" width="200" height="200"><defs><style type="text/css"></style></defs><path d="M512 908.5a375.08 375.08 0 0 1-322.44-566.57 376.87 376.87 0 0 1 137.7-134.84 40 40 0 1 1 39.46 69.59A295.81 295.81 0 0 0 217 533.5c0 162.66 132.34 295 295 295s295-132.34 295-295a295.81 295.81 0 0 0-149.73-256.82 40 40 0 1 1 39.46-69.59A374.89 374.89 0 0 1 887 533.5a374.72 374.72 0 0 1-375 375z" p-id="1198"></path><path d="M512 571a40 40 0 0 1-40-40V155.5a40 40 0 0 1 80 0V531a40 40 0 0 1-40 40z" p-id="1199"></path></svg>