<?xml version="1.0" standalone="no"?><!DOCTYPE svg PUBLIC "-//W3C//DTD SVG 1.1//EN" "http://www.w3.org/Graphics/SVG/1.1/DTD/svg11.dtd"><svg t="1625046801933" class="icon" viewBox="0 0 1024 1024" version="1.1" xmlns="http://www.w3.org/2000/svg" p-id="3898" xmlns:xlink="http://www.w3.org/1999/xlink" width="200" height="200"><defs><style type="text/css"></style></defs><path d="M759.4 264.8c-127.3-127.3-329-135.9-466.5-26v-56.7h-64v134.2c0 19.6 15.9 35.5 35.4 35.5h134.3v-64h-64.5C446.5 199.1 610.4 206.4 714 310c111.7 111.7 111.7 293.5 0 405.2-54.1 54.1-126.1 83.9-202.6 83.9S363.1 769.4 309 715.3c-54.7-54.8-84.6-127.6-83.9-205l-64-0.5c-0.8 94.7 35.7 183.8 102.7 250.8C330 826.8 418 863.3 511.7 863.3s181.7-36.5 247.9-102.7c136.5-136.7 136.5-359.1-0.2-495.8z" fill="#000000" p-id="3899"></path></svg>