<?xml version="1.0" standalone="no"?><!DOCTYPE svg PUBLIC "-//W3C//DTD SVG 1.1//EN" "http://www.w3.org/Graphics/SVG/1.1/DTD/svg11.dtd"><svg t="1625148648285" class="icon" viewBox="0 0 1024 1024" version="1.1" xmlns="http://www.w3.org/2000/svg" p-id="4268" xmlns:xlink="http://www.w3.org/1999/xlink" width="200" height="200"><defs><style type="text/css"></style></defs><path d="M786.432 408.064H368.128L330.752 327.68c-15.872-33.792-17.408-71.68-4.608-106.496 12.8-35.328 38.4-62.976 72.192-78.848 18.432-8.192 37.888-12.8 58.368-12.8 54.272 0 103.936 31.744 126.976 80.896l16.896 36.864 0.512 0.512c3.072 2.56 13.312 11.776 26.112 11.776 4.096 0 8.192-1.024 11.776-2.56 18.432-8.704 18.432-30.208 17.92-34.304v-0.512l-17.408-37.888c-33.28-70.656-104.96-116.224-183.296-116.224-29.184 0-58.368 6.656-84.48 18.944-48.64 23.04-85.504 62.976-103.936 113.664-18.432 50.688-15.872 105.472 6.656 154.112 0 0 13.824 28.672 25.6 53.248h-61.44c-35.84 0-59.392 24.064-59.392 59.392v395.776c0 35.84 24.064 59.392 59.392 59.392h547.328c35.84 0 59.392-24.064 59.392-59.392V467.968c0-35.84-23.552-59.904-58.88-59.904z m-113.152 195.584l-162.304 162.304c-5.632 5.632-12.8 8.192-19.968 8.192-7.68 0-15.36-2.56-19.968-8.192L370.176 665.6c-11.264-11.264-11.264-29.184 0.512-40.448 11.264-11.264 29.184-11.264 39.936 0l79.36 79.872 142.336-142.336c11.264-11.264 29.184-11.264 40.448 0 11.776 11.776 11.776 29.696 0.512 40.96z" fill="#000000" p-id="4269"></path></svg>